:SAMPLES-PER-SECOND 30
:FRAME-RANGE 1-3358
:FULLY-SPECIFIED
:DEGREES
2204
root  -19.8852 38.8959 -9.97683 6.73164 -28.9586 -5.29932
RightUpLeg  -14.1518 -27.0677 7.22411
RightLeg  20.7427 -26.2364 -3.67565
RightFoot  -12.6042 -0.0342401 4.65097
RightToes  -5.8209e-011 0 -3.6325e-017
Spine  13.1975 4.04317 8.84225
Spine1  -8.87284 5.22839 -1.40861
HEad  0.202357 -3.4481 -4.99644
LeftShoulder1  0.337024 2.11336 -17.5611
LeftArm  -27.5753 13.1511 -4.30545
LeftForeArm  -12.5579 -1.39393 -10.6402
LeftHand  0.273419 2.33234 -11.1048
RightShoulder  7.66123 17.7694 29.9808
RightArm  -27.641 14.9703 0.827981
RightForeArm  -15.9237 -2.71118 11.9593
RightHand  2.77028 6.46387 26.2326
LeftUpLeg  -4.96094 24.701 7.40981
LeftLeg  40.4683 7.08591 6.81091
LeftFoot  -5.99859 0.318539 -6.05347
LeftToes  -4.03819e-010 -8.71445e-011 8.52097e-011
2205
root  -20.0945 38.8245 -10.6109 6.12767 -23.5286 -4.18915
RightUpLeg  -19.3158 -41.7387 12.3098
RightLeg  22.6355 -14.6252 -6.72918
RightFoot  -12.8905 -0.017998 5.13635
RightToes  -5.8209e-011 0 -3.6325e-017
Spine  12.1777 3.97136 7.5275
Spine1  -9.12572 4.9376 -1.92533
HEad  3.0535 -4.73911 -5.09894
LeftShoulder1  0.343253 2.07575 -17.3429
LeftArm  -28.0725 13.0066 -3.70139
LeftForeArm  -13.469 -1.51556 -10.4032
LeftHand  0.266731 2.45734 -11.3525
RightShoulder  7.18176 17.6398 27.8854
RightArm  -29.5938 15.8356 0.627143
RightForeArm  -18.3641 -3.35633 11.2032
RightHand  2.62761 5.66067 26.7107
LeftUpLeg  0.558384 28.6903 8.75301
LeftLeg  35.5008 8.78044 7.03205
LeftFoot  -6.42386 0.414397 -8.74358
LeftToes  -4.03819e-010 -8.71445e-011 8.52097e-011
2206
root  -20.2045 38.5238 -11.2509 5.80533 -18.5469 -2.84924
RightUpLeg  -23.5049 -34.4964 9.64072
RightLeg  32.0376 -15.3032 -10.3215
RightFoot  -12.327 -0.00643788 8.98357
RightToes  -5.8209e-011 0 -3.6325e-017
Spine  11.3709 3.92941 6.40707
Spine1  -9.00485 4.77894 -2.96753
HEad  4.67888 -6.42408 -5.17369
LeftShoulder1  0.34036 2.09201 -17.4206
LeftArm  -28.2615 12.6152 -3.08018
LeftForeArm  -14.3288 -1.73741 -10.351
LeftHand  0.24286 2.70237 -11.4338
RightShoulder  6.72999 17.9604 25.1666
RightArm  -32.2167 16.9544 0.235751
RightForeArm  -22.2635 -3.90859 10.1859
RightHand  2.51072 4.78316 27.7367
LeftUpLeg  5.42047 30.3487 9.72283
LeftLeg  29.8661 9.52262 6.2127
LeftFoot  -11.0931 0.111312 -20.717
LeftToes  -4.03819e-010 -8.71445e-011 8.52097e-011
2207
root  -20.2833 37.7001 -11.9901 5.48749 -13.6032 -1.10773
RightUpLeg  -30.4844 -26.4303 4.54248
RightLeg  46.8845 -9.09022 -10.5549
RightFoot  -10.2125 -0.22053 15.2206
RightToes  -5.8209e-011 0 -3.6325e-017
Spine  11.7129 3.90991 4.62183
Spine1  -9.50407 4.7477 -4.27067
HEad  4.80718 -8.4849 -5.43563
LeftShoulder1  0.35539 2.04253 -17.6506
LeftArm  -28.3525 11.8149 -2.65197
LeftForeArm  -14.5708 -1.45199 -10.3428
LeftHand  0.237565 2.7763 -11.5481
RightShoulder  6.07137 18.2926 21.4649
RightArm  -35.4618 18.2272 -0.354368
RightForeArm  -27.2642 -4.43096 8.86006
RightHand  2.37359 3.98566 28.4742
LeftUpLeg  6.52364 28.989 9.33469
LeftLeg  27.784 5.4413 3.462
LeftFoot  -20.5419 -1.77241 -23.2557
LeftToes  -4.03819e-010 -8.71445e-011 8.52097e-011
2208
root  -20.4257 36.7354 -12.8705 5.44537 -8.58459 0.615112
RightUpLeg  -38.0993 -20.4906 -1.58437
RightLeg  59.5433 -1.68682 -3.58286
RightFoot  -4.10568 -0.991024 15.147
RightToes  -5.8209e-011 0 -3.6325e-017
Spine  13.2632 3.97666 2.92194
Spine1  -10.1878 4.81623 -5.33414
HEad  3.36119 -10.98 -5.43018
LeftShoulder1  0.389496 1.90287 -17.6618
LeftArm  -28.6121 10.6919 -2.66313
LeftForeArm  -15.2401 -0.987321 -10.3019
LeftHand  0.212317 3.02816 -11.6302
RightShoulder  5.31701 18.3044 17.7314
RightArm  -40.1889 19.5804 -1.8284
RightForeArm  -31.6235 -5.16448 6.7549
RightHand  2.35274 3.50414 29.7378
LeftUpLeg  3.13871 26.1919 7.96675
LeftLeg  31.348 1.40573 1.30225
LeftFoot  -29.0214 -2.92059 -19.7253
LeftToes  -4.03819e-010 -8.71445e-011 8.52097e-011
2209
root  -20.6887 35.7467 -13.7494 5.57552 -3.24872 1.42792
RightUpLeg  -43.4389 -15.4577 -7.5119
RightLeg  66.8807 1.0383 2.01742
RightFoot  -0.324089 -1.15341 11.8969
RightToes  -5.8209e-011 0 -3.6325e-017
Spine  15.381 3.71103 3.26074
Spine1  -10.4172 4.94464 -7.11551
HEad  0.726669 -14.1272 -4.64187
LeftShoulder1  0.433058 1.72344 -17.6582
LeftArm  -28.8958 8.99623 -2.62448
LeftForeArm  -15.7995 -0.321838 -10.298
LeftHand  0.179194 3.35349 -11.739
RightShoulder  4.41234 17.7033 13.8372
RightArm  -44.9473 19.8582 -2.86824
RightForeArm  -37.213 -3.97457 4.66139
RightHand  2.24961 2.92055 30.4471
LeftUpLeg  -2.53035 23.3284 7.5292
LeftLeg  38.6692 -0.630535 -0.133641
LeftFoot  -35.313 -3.26427 -16.2867
LeftToes  -4.03819e-010 -8.71445e-011 8.52097e-011
